<svg xmlns="http://www.w3.org/2000/svg" xmlns:xlink="http://www.w3.org/1999/xlink" viewBox="0 0 201.87 228.04"><defs><style>.cls-1{fill:#497816;}.cls-2{fill:#93b659;}.cls-3{fill:url(#未命名的渐变_18);}.cls-4{fill:#fff;}</style><linearGradient id="未命名的渐变_18" x1="50.48" y1="164.83" x2="188.95" y2="164.83" gradientUnits="userSpaceOnUse"><stop offset="0" stop-color="#ff931e"/><stop offset="0.17" stop-color="#ff991d"/><stop offset="1" stop-color="#ffb217"/></linearGradient></defs><g id="图层_2" data-name="图层 2"><g id="图层_1-2" data-name="图层 1"><path class="cls-1" d="M124.06,68.45C115.23,46.09,94.17,30.05,71.19,23,47.77,15.77,23.83,17.41,0,21.14c4.56-.72,12.67,2.94,17.18,4.1C23.5,26.86,29.79,28.62,36,30.7A136.58,136.58,0,0,1,70.05,47.32c22.07,15.16,39.5,40.36,56.41,60.85a18,18,0,0,1,2.71,4.37C133.35,98.74,129.21,81.48,124.06,68.45Z"/><path class="cls-2" d="M120.78,73c.15-19.57,11.54-38,27.06-50.26C163.67,10.27,182.5,4.33,201.87,0c-3.71.83-8.84,6-12,8.25-4.36,3.13-8.66,6.35-12.79,9.78a112.9,112.9,0,0,0-21.2,22.79c-12.43,18.08-18.32,42.37-25.22,63a15.08,15.08,0,0,0-.79,4.11C122.63,98.7,120.69,84.4,120.78,73Z"/><path class="cls-1" d="M124.83,106.83c1.61-6,3.3-12.21,6.23-16.66s7.47-6.72,11-3.63c-4.83,4.29-8.17,11.93-11.53,19.09-.95,2-2.07,4.18-3.61,4.54s-3.25-2.48-2.42-4.65"/><path class="cls-3" d="M179.4,132.58A63.4,63.4,0,0,0,165,116.17C144.25,99.63,110,97.58,86,108.06c-36.23,15.87-48.26,71.59-19.6,99.65C86.14,227,117,232.08,143.1,225c25.88-7,47-35,45.8-61.91A64.42,64.42,0,0,0,179.4,132.58Z"/><path class="cls-4" d="M138,200.57c.44-2.15,3-3.15,4.61-4.16a37.22,37.22,0,0,0,6.15-4.89,34.85,34.85,0,0,0,4.59-5.41c1.37-2,2.32-4.27,3.73-6.15.69,3.25-1.75,7.63-3.19,10.41a17.65,17.65,0,0,1-8.51,8.2C143.24,199.52,140.39,200.87,138,200.57Z"/></g></g></svg>